<svg width="44" height="36" viewBox="0 0 44 36" fill="none" xmlns="http://www.w3.org/2000/svg">
<path d="M15.2704 18.2903H11.0089C9.83695 18.2903 8.87811 19.0742 8.87811 20.0323V27C8.87811 27.9581 9.83695 28.742 11.0089 28.742H15.2704C16.4423 28.742 17.4011 27.9581 17.4011 27V20.0323C17.4011 19.0742 16.4423 18.2903 15.2704 18.2903Z" fill="#1E1E1E"/>
<path d="M22.728 13.3549C21.5561 13.3549 20.5973 14.1387 20.5973 15.0968V27C20.5973 27.9581 21.5561 28.742 22.728 28.742H26.9895C28.1615 28.742 29.1203 27.9581 29.1203 27V15.0968C29.1203 14.1387 28.1615 13.3549 26.9895 13.3549H22.728Z" fill="#1E1E1E"/>
<path d="M38.7087 13.3549H34.4472C33.2752 13.3549 32.3164 14.1387 32.3164 15.0968V27C32.3164 27.9581 33.2752 28.742 34.4472 28.742H38.7087C39.8806 28.742 40.8394 27.9581 40.8394 27V15.0968C40.8394 14.1387 39.8806 13.3549 38.7087 13.3549Z" fill="#1E1E1E"/>
<path d="M2.30831 36H42.0468C43.2187 36 44 35.071 44 34.1129V33.5323C44 32.5742 43.2187 31.6742 42.0468 31.6742H7.35109C6.17918 31.6742 5.32688 31.0065 5.32688 30.0196V1.59677C5.32688 0.63871 4.22599 0 3.05408 0H2.34383C1.1364 0 0 0.63871 0 1.59677V34.0839C0 35.071 1.1364 36 2.30831 36Z" fill="#1E1E1E"/>
</svg>
