<svg width="40" height="39" viewBox="0 0 40 39" fill="none" xmlns="http://www.w3.org/2000/svg">
<path d="M22.117 0C12.2563 0 4.23392 7.82179 4.23392 17.436C4.23392 20.275 4.93385 22.9574 6.17353 25.3284L1.62299 29.7652C-0.540996 31.875 -0.540996 35.3079 1.62299 37.4177C2.70486 38.4727 4.12611 39 5.54728 39C6.96853 39 8.38986 38.4726 9.47166 37.4177L14.0221 32.9809C16.4542 34.1897 19.2054 34.872 22.117 34.872C31.9777 34.872 40 27.0502 40 17.436C40 7.82186 31.9777 0 22.117 0ZM6.85556 34.8668C6.13408 35.5703 4.96056 35.5701 4.23924 34.8668C3.51783 34.1635 3.51783 33.0192 4.23924 32.316L8.23767 28.4177C9.01759 29.353 9.89462 30.208 10.8539 30.9685L6.85556 34.8668ZM22.117 31.2646C14.2964 31.2646 7.93384 25.0611 7.93384 17.436C7.93384 9.81101 14.2964 3.6075 22.117 3.6075C29.9375 3.6075 36.3001 9.81094 36.3001 17.436C36.3001 25.0612 29.9376 31.2646 22.117 31.2646Z" fill="white"/>
</svg>
